<?xml version="1.0" encoding="UTF-8" standalone="no"?>
<!-- Created with Inkscape (http://www.inkscape.org/) -->

<svg
   width="36.152817mm"
   height="35.674721mm"
   viewBox="0 0 36.152816 35.674721"
   version="1.1"
   id="svg1"
   xml:space="preserve"
   xmlns="http://www.w3.org/2000/svg"
   xmlns:svg="http://www.w3.org/2000/svg"><defs
     id="defs1" /><ellipse
     style="fill:#ffffff;stroke-width:4.30001;stroke-linecap:round;paint-order:fill markers stroke"
     id="path1"
     ry="16.91272"
     rx="16.135798"
     cy="17.83736"
     cx="18.076416" /><path
     id="path5"
     style="display:inline;fill:#800080;stroke-width:0.999997"
     d="M 18.076094,9.2884144e-7 C 8.1037036,9.2884144e-7 -6.3757293e-6,7.9965439 -6.3757293e-6,17.837052 c 0,9.840503 8.1037099757293,17.83767 18.0761003757293,17.83767 9.97238,0 18.07672,-7.997167 18.07672,-17.83767 C 36.152814,7.9965439 28.048474,9.2884144e-7 18.076094,9.2884144e-7 Z m 0,1.81248597115856 c 8.97982,0 16.23994,7.163491 16.23994,16.0245651 0,1.93151 -0.34534,3.782212 -0.97786,5.495832 -0.517,-0.243691 -1.58212,-0.671591 -2.47329,-0.983038 -1.25132,-0.437306 -3.3501,-0.217894 -4.52835,0.473573 -0.19841,0.11643 -0.40013,0.211654 -0.44861,0.211654 -0.45225,0 0.13833,-2.888317 0.81716,-3.996148 0.18576,-0.303162 0.4939,-0.555553 0.76338,-0.625291 0.13589,-0.03516 0.2385,0.01444 0.49825,0.241624 0.48417,0.423379 0.7161,0.519739 1.16832,0.485121 1.07696,-0.08243 1.76976,-1.34587 1.31478,-2.397501 -0.36822,-0.851156 -0.95754,-1.263447 -1.87822,-1.313632 -1.06819,-0.05823 -2.18558,0.28976 -2.84343,0.88564 -0.86717,0.78546 -2.40877,3.362917 -3.21736,5.379397 -0.26811,0.668602 -0.55751,1.129136 -0.70991,1.129136 -0.0707,0 -0.36336,-0.07787 -0.65012,-0.172944 -0.28675,-0.09508 -0.5964,-0.189302 -0.68807,-0.20947 -0.2031,-0.04466 -0.56215,-0.581844 -0.7156,-1.07076 -0.15943,-0.507822 -0.15412,-2.568856 0.009,-3.521332 0.36992,-2.161954 1.24306,-4.127676 2.00318,-4.509368 0.41999,-0.210895 0.62358,-0.155057 1.1313,0.309989 0.51858,0.475523 0.69161,0.534272 1.37932,0.47326 0.49007,-0.04349 0.99728,-0.24364 1.2474,-0.492301 0.92285,-0.91743 0.52903,-2.755537 -0.78077,-3.6449531 -0.71169,-0.48323 -1.58329,-0.653538 -2.40654,-0.469823 -0.60069,0.134037 -1.55136,0.6085171 -2.10061,1.0482821 -1.90301,1.523675 -3.64592,4.491546 -4.89218,8.330071 -0.54755,1.686491 -0.92157,3.155231 -0.97818,3.841939 -0.0256,0.310738 -0.0706,0.606007 -0.0999,0.656192 -0.0742,0.127038 -0.65558,-0.01593 -1.35718,-0.333714 -0.67017,-0.303549 -1.29786,-0.489843 -1.86778,-0.554426 l -0.43973,-0.04995 v -0.235688 c 0,-0.459113 0.46185,-2.165571 0.75167,-2.777423 0.33352,-0.704081 0.5103,-0.862738 1.00981,-0.906557 0.35228,-0.03092 0.37931,-0.02067 0.67733,0.256922 0.17606,0.163993 0.41035,0.308862 0.54192,0.334967 0.38121,0.07567 0.88817,-0.02342 1.21544,-0.237569 0.42616,-0.278803 0.60248,-0.63635 0.60362,-1.22591 0.002,-0.934856 -0.3997,-1.693764 -1.0965,-2.070655 -0.3752,-0.202974 -0.43148,-0.212679 -1.19837,-0.20947 -0.67418,0.0028 -0.86653,0.02957 -1.18697,0.163579 -1.29585,0.541974 -2.6238404,2.075428 -3.6745104,4.243081 -0.44932,0.92699 -1.26245,2.941793 -1.32079,3.273156 -0.0157,0.0893 -0.12249,0.163602 -0.32332,0.224139 -0.16504,0.04974 -0.51014,0.158875 -0.76686,0.24256 -0.25671,0.08368 -0.6669,0.156273 -0.91142,0.161083 -0.4098,0.0083 -0.47416,-0.07231 -1.14681,-0.358376 -0.63134,-0.268502 -0.81815,-0.182038 -1.04366,-0.259417 -0.57331,-1.640679 -0.88865,-3.400777 -0.88865,-5.235484 0,-8.8610741 7.26012,-16.0245651 16.2399404,-16.0245651 z m 3.04052,4.362333 c -0.11211,0.0074 -0.22032,0.04275 -0.31257,0.111136 -0.18708,0.13867 -0.35474,0.533978 -0.30117,0.710195 0.0953,0.313626 0.20744,0.473079 0.39323,0.558794 0.26546,0.122442 0.40003,0.119727 0.64221,-0.01281 0.24346,-0.133232 0.41616,-0.526267 0.35685,-0.811962 -0.072,-0.347065 -0.44225,-0.577402 -0.77855,-0.555362 z m -5.98836,4.7750251 c -0.60909,0 -0.91901,0.756058 -0.49984,1.219046 0.10174,0.11237 0.24839,0.216502 0.32585,0.231636 0.24458,0.04775 0.46781,-0.03041 0.66656,-0.233508 0.43387,-0.443346 0.1207,-1.217174 -0.49257,-1.217174 z m 7.13484,4.868683 c -0.6091,0 -0.91902,0.756059 -0.49984,1.219042 0.10173,0.112379 0.24806,0.216497 0.32553,0.231631 0.24458,0.04776 0.46811,-0.03041 0.66688,-0.233503 0.43386,-0.443341 0.1207,-1.21717 -0.49257,-1.21717 z m 5.99974,4.182517 c -0.22982,0 -0.31967,0.0434 -0.51376,0.248805 -0.21146,0.223724 -0.23158,0.277923 -0.19899,0.534756 0.0381,0.301006 0.19155,0.535133 0.41411,0.631526 0.33272,0.144109 0.75634,-0.01532 0.89466,-0.336522 0.2277,-0.528856 -0.0761,-1.078565 -0.59602,-1.078565 z M 5.8415536,20.494906 c -0.71228,0 -0.97075,0.903554 -0.37963,1.327365 0.67801,0.486117 1.44943,-0.507845 0.86999,-1.121019 -0.15678,-0.165921 -0.25271,-0.206346 -0.49036,-0.206346 z" /></svg>
