<?xml version="1.0" encoding="UTF-8" standalone="no"?>
<svg
   aria-hidden="true"
   data-prefix="vrchat"
   data-icon="vrchat-group"
   class="svg-inline--fa fa-vrchat-group css-1efeorg e9fqopp0"
   viewBox="0 0 64 64"
   version="1.1"
   id="svg1"
   width="64"
   height="64"
   sodipodi:docname="path1.svg"
   xmlns:inkscape="http://www.inkscape.org/namespaces/inkscape"
   xmlns:sodipodi="http://sodipodi.sourceforge.net/DTD/sodipodi-0.dtd"
   xmlns="http://www.w3.org/2000/svg"
   xmlns:svg="http://www.w3.org/2000/svg">
  <sodipodi:namedview
     id="namedview1"
     pagecolor="#ffffff"
     bordercolor="#000000"
     borderopacity="0.25"
     inkscape:showpageshadow="2"
     inkscape:pageopacity="0.0"
     inkscape:pagecheckerboard="0"
     inkscape:deskcolor="#d1d1d1" />
  <defs
     id="defs1" />
  <path
     fill="currentColor"
     d="m 41.60997,24.279998 6.31,13.29 1.298,2.754 a 12.033,12.033 0 0 1 2.782,-0.324 c 6.627,0 12,5.373 12,12 0,6.627 -5.373,12 -12,12 -6.627,0 -12,-5.373 -12,-12 a 11.98,11.98 0 0 1 4.702,-9.526 l -1.302,-2.754 -6.31,-13.29 c 1.64,-0.46 3.16,-1.2 4.52,-2.15 z m -29.61,15.72 c 5.77,0 10.59,4.073 11.74,9.5 h 13.47 c -0.14,0.81 -0.21,1.65 -0.21,2.5 0,0.85 0.07,1.69 0.21,2.5 h -13.471 c -1.15,5.429 -5.97,9.5 -11.739,9.5 -6.6270005,0 -12.000000488281,-5.373 -12.000000488281,-12 0,-6.627 5.372999988281,-12 12.000000488281,-12 z m 21,-40.00000003125 0.305,0.00400000125 c 6.486,0.162 11.695,5.47000003 11.695,11.99600003 0,6.627 -5.373,12 -12,12 a 12.01,12.01 0 0 1 -3.244,-0.444 l -8.676,16.514 c -1.32,-1.01 -2.81,-1.8 -4.42,-2.32 l 8.67,-16.51 a 12.012,12.012 0 0 1 -4.33,-9.24 c 0,-6.627 5.373,-12.00000003125 12,-12.00000003125 z"
     id="path1"
     style="fill:#ffffff" />
</svg>
