<?xml version="1.0" encoding="UTF-8" standalone="no"?>
<!-- Created with Inkscape (http://www.inkscape.org/) -->

<svg
   width="689.38763mm"
   height="134.36336mm"
   viewBox="0 0 689.38763 134.36336"
   version="1.1"
   id="svg1"
   xml:space="preserve"
   xmlns="http://www.w3.org/2000/svg"
   xmlns:svg="http://www.w3.org/2000/svg"><defs
     id="defs1"><rect
       x="-70.44297"
       y="1962.3398"
       width="1546.3909"
       height="969.42944"
       id="rect5" /></defs><g
     id="layer1"
     transform="translate(52.989118,-340.97426)"><path
       id="path4-0"
       style="color:#000000;fill:#000000;stroke-linecap:round;-inkscape-stroke:none;paint-order:fill markers stroke"
       d="m -24.639426,340.97423 c -15.608784,0 -28.349694,12.7409 -28.349694,28.34969 v 77.66399 c 0,15.60878 12.74091,28.34969 28.349694,28.34969 H 53.0225 c 15.608785,0 28.349691,-12.74091 28.349691,-28.34969 v -77.66399 c 0,-15.60879 -12.740906,-28.34969 -28.349691,-28.34969 z m 0,11.20138 h 23.300903 l -0.08527,15.4156 h -40.279195 c 0.846313,-8.75794 8.051711,-15.4156 17.063558,-15.4156 z m 54.416317,0 H 53.0225 c 9.011847,0 16.219103,6.65766 17.065625,15.4156 H 29.690591 Z m -71.564624,46.94907 h 38.602811 c -5.230107,16.29467 -18.110563,27.17535 -38.602811,32.66881 z m 73.122151,0 h 38.838457 v 32.63884 C 49.673085,426.06442 36.71407,415.19336 31.334418,399.12468 Z m -17.142106,24.65845 c 4.461676,10.35318 10.488902,19.32291 18.081584,26.90998 5.680199,5.67599 11.842733,10.15617 18.486727,13.44363 h -73.246175 c 6.576256,-3.30295 12.736242,-7.82287 18.478975,-13.56197 7.749232,-7.6661 13.815484,-16.59653 18.198889,-26.79164 z" /><text
       xml:space="preserve"
       transform="matrix(6.3605419,0,0,6.3605419,-4104.3946,-12094.625)"
       id="text4"
       style="font-size:21.3333px;line-height:0.3;font-family:'GenEi Kiwami Gothic';-inkscape-font-specification:'GenEi Kiwami Gothic';text-align:center;letter-spacing:0.05px;word-spacing:0.04px;white-space:pre;shape-inside:url(#rect5);display:inline;fill:#000000;fill-opacity:1;stroke:none;stroke-width:0.676044;stroke-linecap:round;paint-order:fill markers stroke"><tspan
         x="660.01035"
         y="1973.6465"
         id="tspan2"><tspan
           style="stroke-width:0.0407875"
           id="tspan1">大崎商会</tspan></tspan></text></g></svg>
