<?xml version="1.0" encoding="UTF-8" standalone="no"?>
<!-- Created with Inkscape (http://www.inkscape.org/) -->

<svg
   width="134.3613mm"
   height="134.36337mm"
   viewBox="0 0 134.3613 134.36337"
   version="1.1"
   id="svg1"
   inkscape:version="1.3.2 (091e20e, 2023-11-25, custom)"
   sodipodi:docname="LogoDevelopment.svg"
   xml:space="preserve"
   xmlns:inkscape="http://www.inkscape.org/namespaces/inkscape"
   xmlns:sodipodi="http://sodipodi.sourceforge.net/DTD/sodipodi-0.dtd"
   xmlns="http://www.w3.org/2000/svg"
   xmlns:svg="http://www.w3.org/2000/svg"><sodipodi:namedview
     id="namedview1"
     pagecolor="#ffffff"
     bordercolor="#000000"
     borderopacity="0.25"
     inkscape:showpageshadow="2"
     inkscape:pageopacity="0.0"
     inkscape:pagecheckerboard="0"
     inkscape:deskcolor="#d1d1d1"
     inkscape:document-units="mm"
     inkscape:zoom="0.596227"
     inkscape:cx="1241.9766"
     inkscape:cy="1580.7738"
     inkscape:window-width="3840"
     inkscape:window-height="2089"
     inkscape:window-x="-8"
     inkscape:window-y="-8"
     inkscape:window-maximized="1"
     inkscape:current-layer="layer1" /><defs
     id="defs1" /><g
     inkscape:label="Layer 1"
     inkscape:groupmode="layer"
     id="layer1"
     transform="translate(-18.917054,-566.56676)"><path
       id="path4-0-1"
       style="color:#000000;fill:#000000;stroke-linecap:round;-inkscape-stroke:none;paint-order:fill markers stroke"
       d="m 47.266745,566.56676 c -15.60878,0 -28.34969,12.7409 -28.34969,28.34969 v 77.66399 c 0,15.60878 12.74091,28.34969 28.34969,28.34969 h 77.661925 c 15.60879,0 28.34969,-12.74091 28.34969,-28.34969 v -77.66399 c 0,-15.60879 -12.7409,-28.34969 -28.34969,-28.34969 z m 0,11.20138 h 23.30091 l -0.0853,15.4156 h -40.2792 c 0.84632,-8.75794 8.05171,-15.4156 17.06356,-15.4156 z m 54.416315,0 h 23.24561 c 9.01185,0 16.2191,6.65766 17.06563,15.4156 h -40.39754 z m -71.564615,46.94907 h 38.60281 c -5.23011,16.29467 -18.11056,27.17535 -38.60281,32.66881 z m 73.122145,0 h 38.83846 v 32.63884 c -20.49979,-5.6991 -33.45881,-16.57016 -38.83846,-32.63884 z m -17.142105,24.65845 c 4.46168,10.35318 10.4889,19.32291 18.081585,26.90998 5.6802,5.67599 11.84273,10.15617 18.48672,13.44363 H 49.420625 c 6.57625,-3.30295 12.73624,-7.82287 18.47897,-13.56197 7.74924,-7.6661 13.81549,-16.59653 18.19889,-26.79164 z" /></g></svg>
