<?xml version="1.0" encoding="UTF-8" standalone="no"?>
<svg
   aria-hidden="true"
   data-prefix="vrchat"
   data-icon="vrchat-world-stars"
   class="svg-inline--fa fa-vrchat-world-stars css-1efeorg e9fqopp0"
   viewBox="0 0 64.000397 63.996227"
   version="1.1"
   id="svg1"
   sodipodi:docname="World.svg"
   width="64.000397"
   height="63.996227"
   xmlns:inkscape="http://www.inkscape.org/namespaces/inkscape"
   xmlns:sodipodi="http://sodipodi.sourceforge.net/DTD/sodipodi-0.dtd"
   xmlns="http://www.w3.org/2000/svg"
   xmlns:svg="http://www.w3.org/2000/svg">
  <defs
     id="defs1" />
  <sodipodi:namedview
     id="namedview1"
     pagecolor="#ffffff"
     bordercolor="#000000"
     borderopacity="0.25"
     inkscape:showpageshadow="2"
     inkscape:pageopacity="0.0"
     inkscape:pagecheckerboard="0"
     inkscape:deskcolor="#d1d1d1" />
  <path
     fill="currentColor"
     d="m 43.500392,7.5102212 c 9.31,-6.42 16.8,-9.17 19.48,-6.49 2.83,2.84 -0.42,11.0699998 -7.66,21.1399998 a 26.18,26.18 0 0 1 1.28,8.11 c 0,14.54 -11.79,26.33 -26.33,26.33 -2.83,0 -5.55,-0.45 -8.11,-1.28 -10.07,7.24 -18.31,10.49 -21.14,7.66 -2.68,-2.68 0.07,-10.17 6.48,-19.48 a 26.26,26.26 0 0 1 -3.56,-13.23 c 0,-14.54 11.79,-26.3299998 26.33,-26.3199998 4.82,0 9.34,1.29 13.23,3.56 z m 10.32,40.4899998 2.13,3.689 3.688,2.13 -3.689,2.129 -2.13,3.689 -2.129,-3.689 -3.69,-2.13 3.689,-2.13 2.13,-3.688 z m -44.02,-1.18 c -3.01,3.93 -4.5,6.61 -3.86,7.25 v 0.01 c 0.64,0.64 3.29,-0.84 7.19,-3.82 a 27.05,27.05 0 0 1 -3.33,-3.44 z m 41.56,-19.46 c -3.29,4.09 -7.12,8.36 -11.37,12.61 -4.25,4.25 -8.52,8.08 -12.61,11.37 0.95,0.13 1.92,0.2 2.9,0.2 11.74,0 21.27,-9.52 21.27,-21.27 l 0.01,-0.01 c 0,-0.98 -0.07,-1.95 -0.2,-2.9 z m -21.09,-18.3599998 c -11.74,0 -21.27,9.5199998 -21.27,21.2699998 l 0.01,0.01 c 0,3.09 0.65,6.02 1.84,8.67 a 21.2,21.2 0 0 0 2.22,3.84 c 1.16,1.59 2.54,3.02 4.09,4.24 4.49,-3.77 9.94,-8.79 15.64,-14.49 5.57,-5.58 10.5,-10.92 14.24,-15.36 a 21.303,21.303 0 0 0 -8.1,-6.34 21.25,21.25 0 0 0 -8.67,-1.8399998 z m 30.094,27.3639998 1.331,2.305 2.305,1.331 -2.305,1.331 -1.331,2.306 -1.331,-2.306 -2.305,-1.33 2.305,-1.332 z m -6.014,-30.6939998 c -0.66,-0.65 -3.46,0.93 -7.56,4.1 1.28,1.0199998 2.45,2.1599998 3.51,3.3999998 3.14,-4.0699998 4.71,-6.8499998 4.05,-7.4999998 z m -47.077,-2.76 1.597,2.765 2.767,1.597 -2.767,1.598 -1.597,2.7669998 -1.597,-2.7669998 -2.767,-1.597 2.767,-1.597 1.597,-2.767 z"
     id="path1"
     style="fill:#ffffff" />
</svg>
